<svg width="76" height="82" viewBox="0 0 76 82" fill="none" xmlns="http://www.w3.org/2000/svg">
<g clip-path="url(#clip0_1_542)">
<path opacity="0.4" d="M1.10156 27.5362V64.9855C1.10156 66.7383 1.8227 68.4192 3.10633 69.6586C4.38997 70.8979 6.13095 71.5942 7.94628 71.5942H58.1409C59.9562 71.5942 61.6972 70.8979 62.9809 69.6586C64.2645 68.4192 64.9856 66.7383 64.9856 64.9855V27.5362H1.10156ZM50.3351 43.0942L29.9435 62.6174C29.7845 62.7714 29.5956 62.8936 29.3876 62.977C29.1796 63.0604 28.9566 63.1033 28.7314 63.1033C28.5062 63.1033 28.2832 63.0604 28.0752 62.977C27.8672 62.8936 27.6783 62.7714 27.5193 62.6174L15.7407 51.1541C15.5817 51 15.4558 50.8172 15.3702 50.6161C15.2846 50.415 15.2409 50.1995 15.2417 49.9821C15.2425 49.7646 15.2877 49.5495 15.3748 49.3489C15.4619 49.1484 15.5892 48.9664 15.7493 48.8135L15.7607 48.8025L19.8105 44.924C19.9694 44.77 20.1583 44.6478 20.3663 44.5644C20.5743 44.481 20.7973 44.438 21.0226 44.438C21.2478 44.438 21.4708 44.481 21.6788 44.5644C21.8868 44.6478 22.0757 44.77 22.2346 44.924L28.7942 51.3069L43.9096 36.8242C44.0686 36.6702 44.2575 36.548 44.4655 36.4646C44.6735 36.3812 44.8965 36.3383 45.1217 36.3383C45.3469 36.3383 45.5699 36.3812 45.7779 36.4646C45.9859 36.548 46.1748 36.6702 46.3338 36.8242L50.3408 40.7536C50.4999 40.9075 50.6261 41.0902 50.7119 41.2912C50.7978 41.4922 50.8418 41.7076 50.8412 41.9251C50.8407 42.1425 50.7957 42.3577 50.7088 42.5583C50.622 42.759 50.495 42.9411 50.3351 43.0942ZM44.4515 18.7246H49.0146C49.6197 18.7246 50.2001 18.4925 50.6279 18.0794C51.0558 17.6663 51.2962 17.106 51.2962 16.5217V3.30435C51.2962 2.7201 51.0558 2.15979 50.6279 1.74666C50.2001 1.33354 49.6197 1.10145 49.0146 1.10145H44.4515C43.8464 1.10145 43.266 1.33354 42.8381 1.74666C42.4103 2.15979 42.1699 2.7201 42.1699 3.30435V16.5217C42.1699 17.106 42.4103 17.6663 42.8381 18.0794C43.266 18.4925 43.8464 18.7246 44.4515 18.7246ZM17.0726 18.7246H21.6357C22.2408 18.7246 22.8212 18.4925 23.249 18.0794C23.6769 17.6663 23.9173 17.106 23.9173 16.5217V3.30435C23.9173 2.7201 23.6769 2.15979 23.249 1.74666C22.8212 1.33354 22.2408 1.10145 21.6357 1.10145H17.0726C16.4675 1.10145 15.8871 1.33354 15.4593 1.74666C15.0314 2.15979 14.791 2.7201 14.791 3.30435V16.5217C14.791 17.106 15.0314 17.6663 15.4593 18.0794C15.8871 18.4925 16.4675 18.7246 17.0726 18.7246Z" fill="#75A5FF"/>
<path d="M50.5976 40.7536L46.6456 36.8435C46.4903 36.6885 46.3054 36.5653 46.1015 36.4807C45.8976 36.3961 45.6787 36.3519 45.4574 36.3506C45.236 36.3494 45.0166 36.391 44.8117 36.4732C44.6068 36.5554 44.4204 36.6766 44.2633 36.8297L29.4085 51.3124L22.962 44.9295C22.8066 44.7747 22.6216 44.6515 22.4177 44.567C22.2137 44.4826 21.9948 44.4385 21.7735 44.4374C21.5521 44.4362 21.3327 44.478 21.1279 44.5603C20.923 44.6426 20.7367 44.7639 20.5797 44.9171L16.5997 48.7956C16.442 48.9482 16.3165 49.1298 16.2304 49.3302C16.1443 49.5305 16.0993 49.7456 16.098 49.963C16.0967 50.1805 16.1391 50.396 16.2228 50.5973C16.3065 50.7987 16.4298 50.9818 16.5857 51.1362L28.1612 62.5995C28.3165 62.7544 28.5014 62.8777 28.7053 62.9623C28.9093 63.0469 29.1282 63.0911 29.3495 63.0923C29.5708 63.0936 29.7902 63.052 29.9951 62.9697C30.2001 62.8875 30.3864 62.7664 30.5436 62.6133L50.5836 43.0901C50.7413 42.9375 50.8668 42.7558 50.9528 42.5555C51.0389 42.3552 51.0839 42.1401 51.0852 41.9226C51.0865 41.7052 51.0441 41.4896 50.9604 41.2883C50.8768 41.087 50.7534 40.9039 50.5976 40.7495V40.7536ZM58.259 9.91304H51.5323V16.5217C51.5323 17.106 51.2961 17.6663 50.8756 18.0794C50.4551 18.4925 49.8848 18.7246 49.2901 18.7246H44.8056C44.2109 18.7246 43.6406 18.4925 43.2201 18.0794C42.7996 17.6663 42.5634 17.106 42.5634 16.5217V9.91304H24.6255V16.5217C24.6255 17.106 24.3892 17.6663 23.9688 18.0794C23.5482 18.4925 22.9779 18.7246 22.3833 18.7246H17.8988C17.3041 18.7246 16.7338 18.4925 16.3133 18.0794C15.8928 17.6663 15.6565 17.106 15.6565 16.5217V9.91304H8.92983C7.1458 9.91304 5.43483 10.6093 4.17333 11.8487C2.91183 13.0881 2.20313 14.769 2.20312 16.5217L2.20313 27.5362H64.9857V16.5217C64.9857 14.769 64.277 13.0881 63.0155 11.8487C61.754 10.6093 60.0431 9.91304 58.259 9.91304Z" fill="white"/>
<path opacity="0.4" d="M1.10156 27.0362H0.601562V27.5362V64.9855C0.601562 66.8766 1.3798 68.6866 2.75904 70.0183C4.13768 71.3494 6.00389 72.0942 7.94628 72.0942H58.1409C60.0833 72.0942 61.9495 71.3494 63.3282 70.0183C64.7074 68.6866 65.4856 66.8766 65.4856 64.9855V27.5362V27.0362H64.9856H1.10156ZM29.5977 62.2562L29.5956 62.2583C29.4838 62.3666 29.3501 62.4534 29.2016 62.5129C29.053 62.5725 28.8932 62.6033 28.7314 62.6033C28.5696 62.6033 28.4098 62.5725 28.2613 62.5129C28.1131 62.4535 27.9795 62.3669 27.8679 62.2589C27.8677 62.2587 27.8675 62.2585 27.8673 62.2583L16.0894 50.7957L16.0886 50.795C15.9769 50.6867 15.8894 50.5592 15.8302 50.4202C15.7711 50.2813 15.7411 50.133 15.7417 49.9839C15.7422 49.8347 15.7732 49.6867 15.8334 49.5481C15.8936 49.4095 15.9821 49.2825 16.0947 49.175L16.0965 49.1732L16.1065 49.1636L16.1079 49.1622L20.1563 45.2851L20.1584 45.2831C20.2701 45.1748 20.4039 45.088 20.5524 45.0285C20.7009 44.9689 20.8608 44.938 21.0226 44.938C21.1843 44.938 21.3442 44.9689 21.4927 45.0285C21.6412 45.088 21.775 45.1748 21.8867 45.2831L28.4455 51.6652L28.7915 52.0019L29.1401 51.6679L44.2555 37.1852L44.2575 37.1833C44.3693 37.075 44.503 36.9882 44.6515 36.9287C44.8 36.8691 44.9599 36.8383 45.1217 36.8383C45.2835 36.8383 45.4433 36.8691 45.5918 36.9287C45.7398 36.988 45.8731 37.0744 45.9847 37.1822C45.9851 37.1825 45.9854 37.1829 45.9858 37.1833L49.9907 41.1106L49.9933 41.1131C50.1051 41.2212 50.1928 41.3487 50.2521 41.4876C50.3115 41.6265 50.3416 41.7747 50.3412 41.9238C50.3409 42.073 50.31 42.2211 50.25 42.3597C50.19 42.4984 50.1017 42.6254 49.9892 42.7331L29.5977 62.2562ZM15.112 1.38696L15.4593 1.74666L15.112 1.38696C14.5885 1.89239 14.291 2.58172 14.291 3.30435V16.5217C14.291 17.2444 14.5885 17.9337 15.112 18.4391C15.6348 18.944 16.3404 19.2246 17.0726 19.2246H21.6357C22.3679 19.2246 23.0735 18.944 23.5963 18.4391C24.1198 17.9337 24.4173 17.2444 24.4173 16.5217V3.30435C24.4173 2.58172 24.1198 1.89239 23.5963 1.38696C23.0735 0.882108 22.3679 0.601449 21.6357 0.601449H17.0726C16.3404 0.601449 15.6349 0.882108 15.112 1.38696ZM44.4515 19.2246H49.0146C49.7468 19.2246 50.4523 18.944 50.9752 18.4391C51.4987 17.9337 51.7962 17.2444 51.7962 16.5217V3.30435C51.7962 2.58172 51.4987 1.89239 50.9752 1.38696C50.4523 0.882107 49.7468 0.601449 49.0146 0.601449H44.4515C43.7193 0.601449 43.0137 0.882108 42.4908 1.38696C41.9674 1.89239 41.6699 2.58172 41.6699 3.30435V16.5217C41.6699 17.2444 41.9674 17.9337 42.4908 18.4391C43.0137 18.944 43.7193 19.2246 44.4515 19.2246Z" fill="#AAAAAA" stroke="black"/>
<path d="M49.8451 39.5649V39.57L46.6738 36.4864C46.6736 36.4863 46.6734 36.4861 46.6733 36.4859C46.4684 36.2852 46.2254 36.1263 45.9588 36.0177C45.692 35.9089 45.4061 35.8523 45.1175 35.8506C44.8289 35.849 44.5424 35.9024 44.2743 36.0081C44.0061 36.1138 43.7612 36.27 43.5538 36.4686L43.5537 36.4687L28.7869 50.6174L22.5745 44.5722C22.5743 44.572 22.5741 44.5718 22.5739 44.5716C22.3689 44.3711 22.1259 44.2124 21.8592 44.1039C21.5923 43.9953 21.3064 43.9388 21.0178 43.9374C20.7292 43.9359 20.4427 43.9894 20.1747 44.0953C19.9066 44.2011 19.6617 44.3575 19.4545 44.5562L15.4061 48.4332C15.406 48.4334 15.4058 48.4336 15.4056 48.4338C15.1977 48.6315 15.0313 48.8679 14.9168 49.1299C14.8022 49.3921 14.742 49.6742 14.7403 49.96C14.7385 50.2457 14.7952 50.5286 14.9067 50.7921C15.0182 51.0556 15.1819 51.2941 15.3877 51.4944L15.3877 51.4945L27.165 62.9565C27.1653 62.9569 27.1657 62.9572 27.166 62.9575C27.3708 63.158 27.6136 63.3167 27.88 63.4253C28.1468 63.5341 28.4327 63.5907 28.7213 63.5923C29.01 63.594 29.2965 63.5406 29.5646 63.4349C29.8327 63.3292 30.0776 63.173 30.285 62.9744C30.285 62.9744 30.285 62.9744 30.285 62.9744L50.6753 43.4524C50.6756 43.4522 50.6758 43.4519 50.6761 43.4517C50.8839 43.2539 51.0502 43.0176 51.1647 42.7558C51.2793 42.4936 51.3395 42.2114 51.3412 41.9257C51.343 41.6399 51.2862 41.3571 51.1748 41.0935C51.0633 40.83 50.8996 40.5915 50.6938 40.3912L49.8451 39.5649ZM51.2962 9.41304H50.7962V9.91304V16.5217C50.7962 16.9676 50.6129 17.3989 50.2806 17.7197C49.9478 18.0411 49.4927 18.2246 49.0146 18.2246H44.4515C43.9734 18.2246 43.5183 18.0411 43.1854 17.7197C42.8532 17.3989 42.6699 16.9676 42.6699 16.5217V9.91304V9.41304H42.1699H23.9173H23.4173V9.91304V16.5217C23.4173 16.9676 23.234 17.3989 22.9017 17.7197C22.5689 18.0411 22.1138 18.2246 21.6357 18.2246H17.0726C16.5945 18.2246 16.1394 18.0411 15.8066 17.7197C15.4743 17.3989 15.291 16.9676 15.291 16.5217V9.91304V9.41304H14.791H7.94628C6.00389 9.41304 4.13768 10.1579 2.75904 11.489C1.3798 12.8207 0.601562 14.6306 0.601562 16.5217V27.5362V28.0362H1.10156H64.9856H65.4856V27.5362V16.5217C65.4856 14.6306 64.7074 12.8207 63.3281 11.489C61.9495 10.1579 60.0833 9.41304 58.1409 9.41304H51.2962Z" fill="white" stroke="#888888"/>
</g>
<circle cx="60.5795" cy="66.087" r="14.9203" fill="#F9FBFF" stroke="#888888"/>
<g clip-path="url(#clip1_1_542)">
<path d="M66.2445 64.6413H61.996V60.3043C61.996 59.7722 61.5733 59.3406 61.0519 59.3406H60.1078C59.5865 59.3406 59.1637 59.7722 59.1637 60.3043V64.6413H54.9153C54.394 64.6413 53.9712 65.0729 53.9712 65.6051V66.5688C53.9712 67.101 54.394 67.5326 54.9153 67.5326H59.1637V71.8696C59.1637 72.4017 59.5865 72.8333 60.1078 72.8333H61.0519C61.5733 72.8333 61.996 72.4017 61.996 71.8696V67.5326H66.2445C66.7658 67.5326 67.1886 67.101 67.1886 66.5688V65.6051C67.1886 65.0729 66.7658 64.6413 66.2445 64.6413Z" fill="#888888"/>
</g>
<defs>
<clipPath id="clip0_1_542">
<rect width="66.087" height="72.6957" fill="white"/>
</clipPath>
<clipPath id="clip1_1_542">
<rect width="13.2174" height="15.4203" fill="white" transform="translate(53.9712 58.3768)"/>
</clipPath>
</defs>
</svg>
