<svg width="14" height="15" viewBox="0 0 14 15" fill="none" xmlns="http://www.w3.org/2000/svg">
<path d="M14 13.4531L10.8965 10.3633C11.2428 9.88018 11.5117 9.34242 11.7031 8.74997C11.9036 8.15752 12.0039 7.53317 12.0039 6.87692C12.0039 6.0475 11.849 5.2682 11.5391 4.53903C11.2201 3.80987 10.7871 3.1764 10.2402 2.63864C9.70247 2.09177 9.06901 1.65882 8.33984 1.33981C7.61068 1.02992 6.83138 0.874969 6.00195 0.874969C5.17253 0.874969 4.39323 1.02992 3.66406 1.33981C2.9349 1.65882 2.29688 2.09177 1.75 2.63864C1.21224 3.1764 0.783854 3.80987 0.464844 4.53903C0.154948 5.2682 0 6.0475 0 6.87692C0 7.70635 0.154948 8.48565 0.464844 9.21481C0.783854 9.94398 1.21224 10.582 1.75 11.1289C2.29688 11.6666 2.9349 12.095 3.66406 12.414C4.39323 12.7239 5.17253 12.8789 6.00195 12.8789C6.6582 12.8789 7.28255 12.7832 7.875 12.5918C8.46745 12.3912 9.00977 12.1133 9.50195 11.7578L12.5918 14.875L14 13.4531ZM1.99609 6.87692C1.99609 6.32093 2.10091 5.8014 2.31055 5.31833C2.52018 4.83526 2.80729 4.41143 3.17188 4.04684C3.53646 3.68226 3.96029 3.39515 4.44336 3.18552C4.93555 2.97588 5.45508 2.87106 6.00195 2.87106C6.55794 2.87106 7.07747 2.97588 7.56055 3.18552C8.05273 3.39515 8.47656 3.68226 8.83203 4.04684C9.19661 4.41143 9.48372 4.83526 9.69336 5.31833C9.90299 5.8014 10.0078 6.32093 10.0078 6.87692C10.0078 7.43291 9.90299 7.95244 9.69336 8.43552C9.48372 8.91859 9.19661 9.34242 8.83203 9.707C8.47656 10.0716 8.05273 10.3587 7.56055 10.5683C7.07747 10.778 6.55794 10.8828 6.00195 10.8828C5.45508 10.8828 4.93555 10.778 4.44336 10.5683C3.96029 10.3587 3.53646 10.0716 3.17188 9.707C2.81641 9.34242 2.53385 8.91859 2.32422 8.43552C2.11458 7.95244 2.00521 7.43291 1.99609 6.87692Z" fill="#707070"/>
</svg>
